/* XPM */
static char *progress_zen_027[] = {
/* columns rows colors chars-per-pixel */
"32 32 2 1",
"  c Gray0",
". c None",
/* pixels */
"................................",
"................................",
"................................",
"................................",
"................................",
"...... ...... ...  .............",
".......  ....       ............",
"........  ...  .................",
"........ ....  .................",
"....        .  .................",
"..........  .  .................",
"..........  . ..................",
".........  .....................",
".........  .....................",
"........  ......................",
"........  ......................",
".......   ......................",
".......    .....................",
"......    . ....................",
"...... .  .  ...................",
"..... ..  . ....................",
".... ...  ......................",
"........  ......................",
"........  ......................",
"........  ......................",
"........  ......................",
"........  ......................",
"........  ......................",
"........ .......................",
"................................",
"................................",
"................................"
};
