/* XPM */
static char *progress_zen_061[] = {
/* columns rows colors chars-per-pixel */
"32 32 2 1",
"  c Gray0",
". c None",
/* pixels */
"................................",
"................................",
"................................",
"................................",
"................................",
"...... ...... ...  .. ...  .....",
".......  ....       .       ....",
"........  ...  ..  ..  ..  .....",
"........ ....  ..  ..  ..  .....",
"....        .  ..  ..  ..  .....",
"..........  .      ..      .....",
"..........  . ... ... ..........",
".........  ... .........  ......",
".........  ...             .....",
"........  ....  ........  ......",
"........  ....  ........  ......",
".......   ....  ........  ......",
".......    ...  ........  ......",
"......    . ..  ........  ......",
"...... .  .  .  ........  ......",
"..... ..  . ..  ................",
".... ...  .... .................",
"........  ......................",
"........  ......................",
"........  ......................",
"........  ......................",
"........  ......................",
"........  ......................",
"........ .......................",
"................................",
"................................",
"................................"
};
